<mxfile host="app.diagrams.net" modified="2023-06-09T01:36:06.336Z" agent="Mozilla/5.0 (Windows NT 10.0; Win64; x64) AppleWebKit/537.36 (KHTML, like Gecko) Chrome/113.0.0.0 Safari/537.36" etag="ujmW4rHWRmLMME1AztIz" version="21.3.7" type="github">
  <diagram name="第 1 页" id="FQ8Owm5vIL5aCtuXeo5v">
    <mxGraphModel dx="1034" dy="1607" grid="0" gridSize="10" guides="1" tooltips="1" connect="1" arrows="1" fold="1" page="1" pageScale="1" pageWidth="827" pageHeight="1169" math="0" shadow="0">
      <root>
        <mxCell id="0" />
        <mxCell id="1" parent="0" />
        <mxCell id="0ZcrNsuz2E-8Fy6asC18-70" value="node_31" style="swimlane;whiteSpace=wrap;html=1;startSize=23;" parent="1" vertex="1">
          <mxGeometry x="429" y="202" width="150" height="180" as="geometry" />
        </mxCell>
        <mxCell id="0ZcrNsuz2E-8Fy6asC18-71" value="parent_node = &lt;font color=&quot;#ff0000&quot;&gt;node_8&lt;/font&gt;" style="text;html=1;align=center;verticalAlign=middle;resizable=0;points=[];autosize=1;strokeColor=none;fillColor=none;" parent="0ZcrNsuz2E-8Fy6asC18-70" vertex="1">
          <mxGeometry x="6" y="32" width="139" height="26" as="geometry" />
        </mxCell>
        <mxCell id="0ZcrNsuz2E-8Fy6asC18-72" value="prev_node =node_1" style="text;html=1;align=center;verticalAlign=middle;resizable=0;points=[];autosize=1;strokeColor=none;fillColor=none;" parent="0ZcrNsuz2E-8Fy6asC18-70" vertex="1">
          <mxGeometry x="5" y="60" width="130" height="30" as="geometry" />
        </mxCell>
        <mxCell id="0ZcrNsuz2E-8Fy6asC18-73" value="last_node =node_6" style="text;html=1;align=center;verticalAlign=middle;resizable=0;points=[];autosize=1;strokeColor=none;fillColor=none;" parent="0ZcrNsuz2E-8Fy6asC18-70" vertex="1">
          <mxGeometry x="15" y="152" width="120" height="26" as="geometry" />
        </mxCell>
        <mxCell id="0ZcrNsuz2E-8Fy6asC18-74" value="next_node =null" style="text;html=1;align=center;verticalAlign=middle;resizable=0;points=[];autosize=1;strokeColor=none;fillColor=none;" parent="0ZcrNsuz2E-8Fy6asC18-70" vertex="1">
          <mxGeometry x="20" y="90" width="110" height="30" as="geometry" />
        </mxCell>
        <mxCell id="0ZcrNsuz2E-8Fy6asC18-75" value="first_node =node_5" style="text;html=1;align=center;verticalAlign=middle;resizable=0;points=[];autosize=1;strokeColor=none;fillColor=none;" parent="0ZcrNsuz2E-8Fy6asC18-70" vertex="1">
          <mxGeometry x="15" y="122" width="121" height="26" as="geometry" />
        </mxCell>
        <mxCell id="0ZcrNsuz2E-8Fy6asC18-106" value="node_26" style="swimlane;whiteSpace=wrap;html=1;" parent="1" vertex="1">
          <mxGeometry x="67.25" y="-6" width="150" height="186" as="geometry" />
        </mxCell>
        <mxCell id="0ZcrNsuz2E-8Fy6asC18-107" value="parent_node = node_24" style="text;html=1;align=center;verticalAlign=middle;resizable=0;points=[];autosize=1;strokeColor=none;fillColor=none;" parent="0ZcrNsuz2E-8Fy6asC18-106" vertex="1">
          <mxGeometry x="-3" y="32" width="146" height="26" as="geometry" />
        </mxCell>
        <mxCell id="0ZcrNsuz2E-8Fy6asC18-108" value="prev_node =null" style="text;html=1;align=center;verticalAlign=middle;resizable=0;points=[];autosize=1;strokeColor=none;fillColor=none;" parent="0ZcrNsuz2E-8Fy6asC18-106" vertex="1">
          <mxGeometry x="15" y="60" width="110" height="30" as="geometry" />
        </mxCell>
        <mxCell id="0ZcrNsuz2E-8Fy6asC18-109" value="last_node =&lt;font color=&quot;#ff0000&quot;&gt;node_30&lt;/font&gt;" style="text;html=1;align=center;verticalAlign=middle;resizable=0;points=[];autosize=1;strokeColor=none;fillColor=none;" parent="0ZcrNsuz2E-8Fy6asC18-106" vertex="1">
          <mxGeometry x="12" y="151" width="127" height="26" as="geometry" />
        </mxCell>
        <mxCell id="0ZcrNsuz2E-8Fy6asC18-110" value="next_node =node_27" style="text;html=1;align=center;verticalAlign=middle;resizable=0;points=[];autosize=1;strokeColor=none;fillColor=none;" parent="0ZcrNsuz2E-8Fy6asC18-106" vertex="1">
          <mxGeometry x="10" y="92" width="131" height="26" as="geometry" />
        </mxCell>
        <mxCell id="0ZcrNsuz2E-8Fy6asC18-111" value="first_node =&lt;font color=&quot;#ff0000&quot;&gt;node_30&lt;/font&gt;" style="text;html=1;align=center;verticalAlign=middle;resizable=0;points=[];autosize=1;strokeColor=none;fillColor=none;" parent="0ZcrNsuz2E-8Fy6asC18-106" vertex="1">
          <mxGeometry x="12" y="122" width="128" height="26" as="geometry" />
        </mxCell>
        <mxCell id="0ZcrNsuz2E-8Fy6asC18-112" value="node_30" style="swimlane;whiteSpace=wrap;html=1;" parent="1" vertex="1">
          <mxGeometry x="426" y="-3" width="150" height="180" as="geometry" />
        </mxCell>
        <mxCell id="0ZcrNsuz2E-8Fy6asC18-113" value="parent_node = &lt;font color=&quot;#ff0000&quot;&gt;node_7&lt;/font&gt;" style="text;html=1;align=center;verticalAlign=middle;resizable=0;points=[];autosize=1;strokeColor=none;fillColor=none;" parent="0ZcrNsuz2E-8Fy6asC18-112" vertex="1">
          <mxGeometry x="1" y="32" width="139" height="26" as="geometry" />
        </mxCell>
        <mxCell id="0ZcrNsuz2E-8Fy6asC18-114" value="prev_node =null" style="text;html=1;align=center;verticalAlign=middle;resizable=0;points=[];autosize=1;strokeColor=none;fillColor=none;" parent="0ZcrNsuz2E-8Fy6asC18-112" vertex="1">
          <mxGeometry x="18" y="62" width="104" height="26" as="geometry" />
        </mxCell>
        <mxCell id="0ZcrNsuz2E-8Fy6asC18-115" value="last_node =node_2" style="text;html=1;align=center;verticalAlign=middle;resizable=0;points=[];autosize=1;strokeColor=none;fillColor=none;" parent="0ZcrNsuz2E-8Fy6asC18-112" vertex="1">
          <mxGeometry x="15" y="152" width="120" height="26" as="geometry" />
        </mxCell>
        <mxCell id="0ZcrNsuz2E-8Fy6asC18-116" value="next_node =null" style="text;html=1;align=center;verticalAlign=middle;resizable=0;points=[];autosize=1;strokeColor=none;fillColor=none;" parent="0ZcrNsuz2E-8Fy6asC18-112" vertex="1">
          <mxGeometry x="20" y="90" width="110" height="30" as="geometry" />
        </mxCell>
        <mxCell id="0ZcrNsuz2E-8Fy6asC18-117" value="first_node =node_2" style="text;html=1;align=center;verticalAlign=middle;resizable=0;points=[];autosize=1;strokeColor=none;fillColor=none;" parent="0ZcrNsuz2E-8Fy6asC18-112" vertex="1">
          <mxGeometry x="15" y="122" width="121" height="26" as="geometry" />
        </mxCell>
        <mxCell id="0ZcrNsuz2E-8Fy6asC18-120" value="node_27" style="swimlane;whiteSpace=wrap;html=1;" parent="1" vertex="1">
          <mxGeometry x="67.25" y="210" width="150" height="180" as="geometry" />
        </mxCell>
        <mxCell id="0ZcrNsuz2E-8Fy6asC18-121" value="parent_node = node_25" style="text;html=1;align=center;verticalAlign=middle;resizable=0;points=[];autosize=1;strokeColor=none;fillColor=none;" parent="0ZcrNsuz2E-8Fy6asC18-120" vertex="1">
          <mxGeometry x="-3" y="32" width="146" height="26" as="geometry" />
        </mxCell>
        <mxCell id="0ZcrNsuz2E-8Fy6asC18-122" value="prev_node = node_26" style="text;html=1;align=center;verticalAlign=middle;resizable=0;points=[];autosize=1;strokeColor=none;fillColor=none;" parent="0ZcrNsuz2E-8Fy6asC18-120" vertex="1">
          <mxGeometry x="3" y="62" width="135" height="26" as="geometry" />
        </mxCell>
        <mxCell id="0ZcrNsuz2E-8Fy6asC18-123" value="last_node =&lt;font color=&quot;#ff0000&quot;&gt;node_31&lt;/font&gt;" style="text;html=1;align=center;verticalAlign=middle;resizable=0;points=[];autosize=1;strokeColor=none;fillColor=none;" parent="0ZcrNsuz2E-8Fy6asC18-120" vertex="1">
          <mxGeometry x="12" y="151" width="127" height="26" as="geometry" />
        </mxCell>
        <mxCell id="0ZcrNsuz2E-8Fy6asC18-124" value="next_node =null" style="text;html=1;align=center;verticalAlign=middle;resizable=0;points=[];autosize=1;strokeColor=none;fillColor=none;" parent="0ZcrNsuz2E-8Fy6asC18-120" vertex="1">
          <mxGeometry x="20" y="90" width="110" height="30" as="geometry" />
        </mxCell>
        <mxCell id="0ZcrNsuz2E-8Fy6asC18-125" value="first_node =&lt;font color=&quot;#ff0000&quot;&gt;node_31&lt;/font&gt;" style="text;html=1;align=center;verticalAlign=middle;resizable=0;points=[];autosize=1;strokeColor=none;fillColor=none;" parent="0ZcrNsuz2E-8Fy6asC18-120" vertex="1">
          <mxGeometry x="12" y="122" width="128" height="26" as="geometry" />
        </mxCell>
        <mxCell id="0ZcrNsuz2E-8Fy6asC18-126" value="node_5" style="swimlane;whiteSpace=wrap;html=1;" parent="1" vertex="1">
          <mxGeometry x="660" y="223" width="150" height="180" as="geometry" />
        </mxCell>
        <mxCell id="0ZcrNsuz2E-8Fy6asC18-127" value="parent_node = node_4" style="text;html=1;align=center;verticalAlign=middle;resizable=0;points=[];autosize=1;strokeColor=none;fillColor=none;" parent="0ZcrNsuz2E-8Fy6asC18-126" vertex="1">
          <mxGeometry y="30" width="140" height="30" as="geometry" />
        </mxCell>
        <mxCell id="0ZcrNsuz2E-8Fy6asC18-128" value="prev_node =node_2" style="text;html=1;align=center;verticalAlign=middle;resizable=0;points=[];autosize=1;strokeColor=none;fillColor=none;" parent="0ZcrNsuz2E-8Fy6asC18-126" vertex="1">
          <mxGeometry x="5" y="60" width="130" height="30" as="geometry" />
        </mxCell>
        <mxCell id="0ZcrNsuz2E-8Fy6asC18-129" value="last_node =null" style="text;html=1;align=center;verticalAlign=middle;resizable=0;points=[];autosize=1;strokeColor=none;fillColor=none;" parent="0ZcrNsuz2E-8Fy6asC18-126" vertex="1">
          <mxGeometry x="25" y="150" width="100" height="30" as="geometry" />
        </mxCell>
        <mxCell id="0ZcrNsuz2E-8Fy6asC18-130" value="next_node =node_6" style="text;html=1;align=center;verticalAlign=middle;resizable=0;points=[];autosize=1;strokeColor=none;fillColor=none;" parent="0ZcrNsuz2E-8Fy6asC18-126" vertex="1">
          <mxGeometry x="10" y="90" width="130" height="30" as="geometry" />
        </mxCell>
        <mxCell id="0ZcrNsuz2E-8Fy6asC18-131" value="first_node =null" style="text;html=1;align=center;verticalAlign=middle;resizable=0;points=[];autosize=1;strokeColor=none;fillColor=none;" parent="0ZcrNsuz2E-8Fy6asC18-126" vertex="1">
          <mxGeometry x="20" y="120" width="110" height="30" as="geometry" />
        </mxCell>
        <mxCell id="0ZcrNsuz2E-8Fy6asC18-132" value="node_2" style="swimlane;whiteSpace=wrap;html=1;startSize=23;" parent="1" vertex="1">
          <mxGeometry x="660" width="150" height="180" as="geometry" />
        </mxCell>
        <mxCell id="0ZcrNsuz2E-8Fy6asC18-133" value="parent_node = node_1" style="text;html=1;align=center;verticalAlign=middle;resizable=0;points=[];autosize=1;strokeColor=none;fillColor=none;" parent="0ZcrNsuz2E-8Fy6asC18-132" vertex="1">
          <mxGeometry x="1" y="32" width="139" height="26" as="geometry" />
        </mxCell>
        <mxCell id="0ZcrNsuz2E-8Fy6asC18-134" value="prev_node =&lt;font color=&quot;#ff0000&quot;&gt;node_3&lt;/font&gt;" style="text;html=1;align=center;verticalAlign=middle;resizable=0;points=[];autosize=1;strokeColor=none;fillColor=none;" parent="0ZcrNsuz2E-8Fy6asC18-132" vertex="1">
          <mxGeometry x="12.5" y="64" width="125" height="26" as="geometry" />
        </mxCell>
        <mxCell id="0ZcrNsuz2E-8Fy6asC18-135" value="last_node =null" style="text;html=1;align=center;verticalAlign=middle;resizable=0;points=[];autosize=1;strokeColor=none;fillColor=none;" parent="0ZcrNsuz2E-8Fy6asC18-132" vertex="1">
          <mxGeometry x="25" y="150" width="100" height="30" as="geometry" />
        </mxCell>
        <mxCell id="0ZcrNsuz2E-8Fy6asC18-136" value="next_node =node_5" style="text;html=1;align=center;verticalAlign=middle;resizable=0;points=[];autosize=1;strokeColor=none;fillColor=none;" parent="0ZcrNsuz2E-8Fy6asC18-132" vertex="1">
          <mxGeometry x="10" y="90" width="130" height="30" as="geometry" />
        </mxCell>
        <mxCell id="0ZcrNsuz2E-8Fy6asC18-137" value="first_node =null" style="text;html=1;align=center;verticalAlign=middle;resizable=0;points=[];autosize=1;strokeColor=none;fillColor=none;" parent="0ZcrNsuz2E-8Fy6asC18-132" vertex="1">
          <mxGeometry x="20" y="120" width="110" height="30" as="geometry" />
        </mxCell>
        <mxCell id="0ZcrNsuz2E-8Fy6asC18-142" value="node_6" style="swimlane;whiteSpace=wrap;html=1;" parent="1" vertex="1">
          <mxGeometry x="626" y="445" width="150" height="180" as="geometry" />
        </mxCell>
        <mxCell id="0ZcrNsuz2E-8Fy6asC18-143" value="parent_node = &lt;font color=&quot;#ff0000&quot;&gt;node_8&lt;/font&gt;" style="text;html=1;align=center;verticalAlign=middle;resizable=0;points=[];autosize=1;strokeColor=none;fillColor=none;" parent="0ZcrNsuz2E-8Fy6asC18-142" vertex="1">
          <mxGeometry x="1" y="32" width="139" height="26" as="geometry" />
        </mxCell>
        <mxCell id="0ZcrNsuz2E-8Fy6asC18-144" value="prev_node =node_5" style="text;html=1;align=center;verticalAlign=middle;resizable=0;points=[];autosize=1;strokeColor=none;fillColor=none;" parent="0ZcrNsuz2E-8Fy6asC18-142" vertex="1">
          <mxGeometry x="5" y="60" width="130" height="30" as="geometry" />
        </mxCell>
        <mxCell id="0ZcrNsuz2E-8Fy6asC18-145" value="last_node =null" style="text;html=1;align=center;verticalAlign=middle;resizable=0;points=[];autosize=1;strokeColor=none;fillColor=none;" parent="0ZcrNsuz2E-8Fy6asC18-142" vertex="1">
          <mxGeometry x="25" y="150" width="100" height="30" as="geometry" />
        </mxCell>
        <mxCell id="0ZcrNsuz2E-8Fy6asC18-146" value="next_node =null" style="text;html=1;align=center;verticalAlign=middle;resizable=0;points=[];autosize=1;strokeColor=none;fillColor=none;" parent="0ZcrNsuz2E-8Fy6asC18-142" vertex="1">
          <mxGeometry x="20" y="90" width="110" height="30" as="geometry" />
        </mxCell>
        <mxCell id="0ZcrNsuz2E-8Fy6asC18-147" value="first_node =null" style="text;html=1;align=center;verticalAlign=middle;resizable=0;points=[];autosize=1;strokeColor=none;fillColor=none;" parent="0ZcrNsuz2E-8Fy6asC18-142" vertex="1">
          <mxGeometry x="20" y="120" width="110" height="30" as="geometry" />
        </mxCell>
        <mxCell id="0ZcrNsuz2E-8Fy6asC18-151" value="" style="endArrow=classic;startArrow=classic;html=1;rounded=0;exitX=0.5;exitY=1;exitDx=0;exitDy=0;entryX=0.5;entryY=0;entryDx=0;entryDy=0;" parent="1" source="0ZcrNsuz2E-8Fy6asC18-106" target="0ZcrNsuz2E-8Fy6asC18-120" edge="1">
          <mxGeometry width="50" height="50" relative="1" as="geometry">
            <mxPoint x="380" y="150" as="sourcePoint" />
            <mxPoint x="430" y="100" as="targetPoint" />
          </mxGeometry>
        </mxCell>
        <mxCell id="0ZcrNsuz2E-8Fy6asC18-153" value="" style="endArrow=classic;startArrow=classic;html=1;rounded=0;entryX=0.509;entryY=1.035;entryDx=0;entryDy=0;entryPerimeter=0;" parent="1" source="0ZcrNsuz2E-8Fy6asC18-126" target="0ZcrNsuz2E-8Fy6asC18-135" edge="1">
          <mxGeometry width="50" height="50" relative="1" as="geometry">
            <mxPoint x="380" y="150" as="sourcePoint" />
            <mxPoint x="645" y="180" as="targetPoint" />
          </mxGeometry>
        </mxCell>
        <mxCell id="0ZcrNsuz2E-8Fy6asC18-157" value="" style="endArrow=classic;startArrow=classic;html=1;rounded=0;exitX=0.5;exitY=0;exitDx=0;exitDy=0;" parent="1" source="0ZcrNsuz2E-8Fy6asC18-142" target="0ZcrNsuz2E-8Fy6asC18-129" edge="1">
          <mxGeometry width="50" height="50" relative="1" as="geometry">
            <mxPoint x="380" y="380" as="sourcePoint" />
            <mxPoint x="430" y="330" as="targetPoint" />
          </mxGeometry>
        </mxCell>
        <mxCell id="0ZcrNsuz2E-8Fy6asC18-159" value="node_28" style="swimlane;whiteSpace=wrap;html=1;strokeColor=#FF3333;dashed=1;" parent="1" vertex="1">
          <mxGeometry x="240" y="-194" width="150" height="179" as="geometry" />
        </mxCell>
        <mxCell id="0ZcrNsuz2E-8Fy6asC18-160" value="parent_node = node_26" style="text;html=1;align=center;verticalAlign=middle;resizable=0;points=[];autosize=1;strokeColor=none;fillColor=none;" parent="0ZcrNsuz2E-8Fy6asC18-159" vertex="1">
          <mxGeometry x="-2" y="28" width="146" height="26" as="geometry" />
        </mxCell>
        <mxCell id="0ZcrNsuz2E-8Fy6asC18-161" value="prev_node =null" style="text;html=1;align=center;verticalAlign=middle;resizable=0;points=[];autosize=1;strokeColor=none;fillColor=none;" parent="0ZcrNsuz2E-8Fy6asC18-159" vertex="1">
          <mxGeometry x="18" y="62" width="104" height="26" as="geometry" />
        </mxCell>
        <mxCell id="0ZcrNsuz2E-8Fy6asC18-162" value="last_node =node_30" style="text;html=1;align=center;verticalAlign=middle;resizable=0;points=[];autosize=1;strokeColor=none;fillColor=none;" parent="0ZcrNsuz2E-8Fy6asC18-159" vertex="1">
          <mxGeometry x="13" y="152" width="127" height="26" as="geometry" />
        </mxCell>
        <mxCell id="0ZcrNsuz2E-8Fy6asC18-163" value="next_node =node_29" style="text;html=1;align=center;verticalAlign=middle;resizable=0;points=[];autosize=1;strokeColor=none;fillColor=none;" parent="0ZcrNsuz2E-8Fy6asC18-159" vertex="1">
          <mxGeometry x="10" y="92" width="131" height="26" as="geometry" />
        </mxCell>
        <mxCell id="0ZcrNsuz2E-8Fy6asC18-164" value="first_node =node_30" style="text;html=1;align=center;verticalAlign=middle;resizable=0;points=[];autosize=1;strokeColor=none;fillColor=none;" parent="0ZcrNsuz2E-8Fy6asC18-159" vertex="1">
          <mxGeometry x="12" y="122" width="128" height="26" as="geometry" />
        </mxCell>
        <mxCell id="0ZcrNsuz2E-8Fy6asC18-167" value="" style="endArrow=classic;startArrow=classic;html=1;rounded=0;exitX=1;exitY=0.75;exitDx=0;exitDy=0;strokeColor=#000000;entryX=0.5;entryY=0;entryDx=0;entryDy=0;dashed=1;" parent="1" source="0ZcrNsuz2E-8Fy6asC18-159" target="0ZcrNsuz2E-8Fy6asC18-112" edge="1">
          <mxGeometry width="50" height="50" relative="1" as="geometry">
            <mxPoint x="372" y="70" as="sourcePoint" />
            <mxPoint x="708" as="targetPoint" />
          </mxGeometry>
        </mxCell>
        <mxCell id="0ZcrNsuz2E-8Fy6asC18-170" value="" style="endArrow=classic;startArrow=classic;html=1;rounded=0;entryX=0;entryY=0.75;entryDx=0;entryDy=0;strokeColor=#000000;dashed=1;" parent="1" source="0ZcrNsuz2E-8Fy6asC18-106" target="0ZcrNsuz2E-8Fy6asC18-159" edge="1">
          <mxGeometry width="50" height="50" relative="1" as="geometry">
            <mxPoint x="142" y="-6" as="sourcePoint" />
            <mxPoint x="422" y="20" as="targetPoint" />
          </mxGeometry>
        </mxCell>
        <mxCell id="0ZcrNsuz2E-8Fy6asC18-171" value="node_29" style="swimlane;whiteSpace=wrap;html=1;strokeColor=#FF3333;dashed=1;" parent="1" vertex="1">
          <mxGeometry x="249" y="382" width="150" height="180" as="geometry" />
        </mxCell>
        <mxCell id="0ZcrNsuz2E-8Fy6asC18-172" value="parent_node = node_27" style="text;html=1;align=center;verticalAlign=middle;resizable=0;points=[];autosize=1;strokeColor=none;fillColor=none;" parent="0ZcrNsuz2E-8Fy6asC18-171" vertex="1">
          <mxGeometry x="3" y="34" width="146" height="26" as="geometry" />
        </mxCell>
        <mxCell id="0ZcrNsuz2E-8Fy6asC18-173" value="prev_node =node_28" style="text;html=1;align=center;verticalAlign=middle;resizable=0;points=[];autosize=1;strokeColor=none;fillColor=none;" parent="0ZcrNsuz2E-8Fy6asC18-171" vertex="1">
          <mxGeometry x="5" y="62" width="132" height="26" as="geometry" />
        </mxCell>
        <mxCell id="0ZcrNsuz2E-8Fy6asC18-174" value="last_node =node_31" style="text;html=1;align=center;verticalAlign=middle;resizable=0;points=[];autosize=1;strokeColor=none;fillColor=none;" parent="0ZcrNsuz2E-8Fy6asC18-171" vertex="1">
          <mxGeometry x="12" y="152" width="127" height="26" as="geometry" />
        </mxCell>
        <mxCell id="0ZcrNsuz2E-8Fy6asC18-175" value="next_node =null" style="text;html=1;align=center;verticalAlign=middle;resizable=0;points=[];autosize=1;strokeColor=none;fillColor=none;" parent="0ZcrNsuz2E-8Fy6asC18-171" vertex="1">
          <mxGeometry x="24" y="92" width="103" height="26" as="geometry" />
        </mxCell>
        <mxCell id="0ZcrNsuz2E-8Fy6asC18-176" value="first_node =node_31" style="text;html=1;align=center;verticalAlign=middle;resizable=0;points=[];autosize=1;strokeColor=none;fillColor=none;" parent="0ZcrNsuz2E-8Fy6asC18-171" vertex="1">
          <mxGeometry x="12" y="122" width="128" height="26" as="geometry" />
        </mxCell>
        <mxCell id="0ZcrNsuz2E-8Fy6asC18-177" value="" style="endArrow=classic;startArrow=classic;html=1;rounded=0;strokeColor=#000000;entryX=0;entryY=0.25;entryDx=0;entryDy=0;exitX=1.038;exitY=0.821;exitDx=0;exitDy=0;exitPerimeter=0;dashed=1;" parent="1" source="0ZcrNsuz2E-8Fy6asC18-123" target="0ZcrNsuz2E-8Fy6asC18-171" edge="1">
          <mxGeometry width="50" height="50" relative="1" as="geometry">
            <mxPoint x="217" y="372" as="sourcePoint" />
            <mxPoint x="192" y="467" as="targetPoint" />
          </mxGeometry>
        </mxCell>
        <mxCell id="0ZcrNsuz2E-8Fy6asC18-178" value="" style="endArrow=classic;startArrow=classic;html=1;rounded=0;strokeColor=#000000;exitX=1.032;exitY=0.078;exitDx=0;exitDy=0;exitPerimeter=0;dashed=1;" parent="1" source="0ZcrNsuz2E-8Fy6asC18-172" target="0ZcrNsuz2E-8Fy6asC18-73" edge="1">
          <mxGeometry width="50" height="50" relative="1" as="geometry">
            <mxPoint x="372" y="240" as="sourcePoint" />
            <mxPoint x="639" y="312" as="targetPoint" />
          </mxGeometry>
        </mxCell>
        <mxCell id="0ZcrNsuz2E-8Fy6asC18-184" value="" style="endArrow=classic;startArrow=classic;html=1;rounded=0;entryX=0.509;entryY=1.035;entryDx=0;entryDy=0;entryPerimeter=0;" parent="1" edge="1">
          <mxGeometry width="50" height="50" relative="1" as="geometry">
            <mxPoint x="503.23" y="202" as="sourcePoint" />
            <mxPoint x="503.23" y="168" as="targetPoint" />
          </mxGeometry>
        </mxCell>
        <mxCell id="0ZcrNsuz2E-8Fy6asC18-213" value="" style="endArrow=classic;startArrow=classic;html=1;rounded=0;" parent="1" edge="1">
          <mxGeometry width="50" height="50" relative="1" as="geometry">
            <mxPoint x="625" y="84" as="sourcePoint" />
            <mxPoint x="575" y="84" as="targetPoint" />
          </mxGeometry>
        </mxCell>
        <mxCell id="0ZcrNsuz2E-8Fy6asC18-237" value="" style="endArrow=classic;startArrow=classic;html=1;rounded=0;strokeColor=#000000;dashed=1;" parent="1" source="0ZcrNsuz2E-8Fy6asC18-171" edge="1">
          <mxGeometry width="50" height="50" relative="1" as="geometry">
            <mxPoint x="367" y="201" as="sourcePoint" />
            <mxPoint x="320" y="-14" as="targetPoint" />
          </mxGeometry>
        </mxCell>
        <mxCell id="0ZcrNsuz2E-8Fy6asC18-241" value="" style="endArrow=classic;startArrow=classic;html=1;rounded=0;" parent="1" edge="1">
          <mxGeometry width="50" height="50" relative="1" as="geometry">
            <mxPoint x="629" y="274" as="sourcePoint" />
            <mxPoint x="579" y="274" as="targetPoint" />
          </mxGeometry>
        </mxCell>
        <mxCell id="0ZcrNsuz2E-8Fy6asC18-244" value="" style="endArrow=classic;startArrow=classic;html=1;rounded=0;entryX=0;entryY=0.5;entryDx=0;entryDy=0;strokeColor=#FF0000;" parent="1" target="0ZcrNsuz2E-8Fy6asC18-70" edge="1">
          <mxGeometry width="50" height="50" relative="1" as="geometry">
            <mxPoint x="220" y="292" as="sourcePoint" />
            <mxPoint x="426" y="189" as="targetPoint" />
          </mxGeometry>
        </mxCell>
        <mxCell id="0ZcrNsuz2E-8Fy6asC18-245" value="" style="endArrow=classic;startArrow=classic;html=1;rounded=0;entryX=0;entryY=0.5;entryDx=0;entryDy=0;strokeColor=#FF0000;" parent="1" edge="1">
          <mxGeometry width="50" height="50" relative="1" as="geometry">
            <mxPoint x="217" y="93" as="sourcePoint" />
            <mxPoint x="426" y="93" as="targetPoint" />
          </mxGeometry>
        </mxCell>
      </root>
    </mxGraphModel>
  </diagram>
</mxfile>
